<?xml version="1.0" encoding="UTF-8" standalone="no"?>
<!DOCTYPE svg PUBLIC "-//W3C//DTD SVG 1.1//EN" "http://www.w3.org/Graphics/SVG/1.1/DTD/svg11.dtd">
<svg width="100%" height="100%" viewBox="0 0 30 6" version="1.1" xmlns="http://www.w3.org/2000/svg" xmlns:xlink="http://www.w3.org/1999/xlink" xml:space="preserve" xmlns:serif="http://www.serif.com/" style="fill-rule:evenodd;clip-rule:evenodd;stroke-linejoin:round;stroke-miterlimit:1.5;">
    <g transform="matrix(1,0,0,1,-8.37337,-22.4727)">
        <g transform="matrix(-0.984549,-1.20573e-16,1.22465e-16,-1,31.1217,50.9453)">
            <path d="M8.598,25.473L20.537,25.473" style="fill:none;stroke:black;stroke-width:1.01px;"/>
        </g>
        <g transform="matrix(7.38732e-17,-1.20644,1,6.12323e-17,-10.7577,50.5431)">
            <path d="M20.78,19.131L23.076,22.251L18.484,22.251L20.78,19.131Z"/>
        </g>
    </g>
    <g transform="matrix(1,0,0,1,-28.1135,-22.4727)">
        <g transform="matrix(0.984549,0,0,1,35.3652,-1.42109e-14)">
            <path d="M8.598,25.473L20.537,25.473" style="fill:none;stroke:black;stroke-width:1.01px;"/>
        </g>
        <g transform="matrix(7.38732e-17,1.20644,-1,6.12323e-17,77.2447,0.40229)">
            <path d="M20.78,19.131L23.076,22.251L18.484,22.251L20.78,19.131Z"/>
        </g>
    </g>
</svg>
